<?xml version="1.0" encoding="utf-8"?>
<!-- Generator: Adobe Illustrator 18.0.0, SVG Export Plug-In . SVG Version: 6.00 Build 0)  -->
<!DOCTYPE svg PUBLIC "-//W3C//DTD SVG 1.1//EN" "http://www.w3.org/Graphics/SVG/1.1/DTD/svg11.dtd">
<svg version="1.1" id="Arrow_1_" xmlns="http://www.w3.org/2000/svg" xmlns:xlink="http://www.w3.org/1999/xlink" x="0px" y="0px"
	 width="500px" height="500px" viewBox="0 0 500 500" enable-background="new 0 0 500 500" xml:space="preserve">
  <metadata>
    <?xpacket begin="﻿" id="W5M0MpCehiHzreSzNTczkc9d"?>
    <x:xmpmeta xmlns:x="adobe:ns:meta/" x:xmptk="Adobe XMP Core 5.6-c011 79.156380, 2014/06/19-23:40:37        ">
     <rdf:RDF xmlns:rdf="http://www.w3.org/1999/02/22-rdf-syntax-ns#">
      <rdf:Description rdf:about=""
        xmlns:xmpMM="http://ns.adobe.com/xap/1.0/mm/"
        xmlns:stEvt="http://ns.adobe.com/xap/1.0/sType/ResourceEvent#"
        xmlns:xmp="http://ns.adobe.com/xap/1.0/"
        xmlns:xmpRights="http://ns.adobe.com/xap/1.0/rights/"
        xmlns:dc="http://purl.org/dc/elements/1.1/"
       xmpMM:DocumentID="xmp.did:dded508f6f31a706a95fb89f40f95686"
       xmpMM:OriginalDocumentID="xmp.did:dded508f6f31a706a95fb89f40f95686"
       xmpMM:InstanceID="xmp.iid:dded508f6f31a706a95fb89f40f95686"
       xmp:ModifyDate="2015-04-08T17:24:09+02:00"
       xmp:MetadataDate="2015-04-08T17:24:09+02:00"
       xmpRights:Marked="True"
       xmpRights:WebStatement="http://www.adobe.com/legal/general-terms.html">
       <xmpMM:History>
        <rdf:Seq>
         <rdf:li
          stEvt:action="saved"
          stEvt:instanceID="xmp.iid:dded508f6f31a706a95fb89f40f95686"
          stEvt:when="2015-04-08T17:24:09+02:00"/>
        </rdf:Seq>
       </xmpMM:History>
       <xmpRights:UsageTerms>
        <rdf:Alt>
         <rdf:li xml:lang="x-default">This work is licensed under the Adobe General Terms of Use http://www.adobe.com/legal/general-terms.html.</rdf:li>
        </rdf:Alt>
       </xmpRights:UsageTerms>
       <dc:publisher>
        <rdf:Bag>
         <rdf:li>Adobe Systems Incorporated</rdf:li>
        </rdf:Bag>
       </dc:publisher>
      </rdf:Description>
     </rdf:RDF>
    </x:xmpmeta>
    <?xpacket end="r"?>
  </metadata>
<g>
	<path d="M104.9,264.3c12.2,0,36.4,0,36.4,0c36.4,2.7,54,8.4,65.4,14.2c11.5,5.7,13.8,19.9,13.8,19.9c1.1,1.5,15.1,13.7-1.5,25.6
		c-20.3,14.5-105.2,15.7-105.2,15.7h-0.4c0,0-85-1.1-105.2-15.7c-16.6-11.9-2.7-24.1-1.5-25.6c0,0,2.3-14.2,13.8-19.9
		s29.1-11.5,65.4-14.2c0,0,24.1,0,36.4,0"/>
	<path stroke="#FFFFFF" d="M415.1,286.8L223.3,240c-1.2-2.3-2.9-4-5.2-4.6c-1.2-0.3-2.5-0.3-3.8,0v-0.1c0,0-3.3,1.5-8.2,0.4
		c-0.4-0.1-0.6-0.1-0.8-0.1l-8-2c-1.2-2.8-3.1-4.8-5.6-5.5c-1.7-0.5-3.5-0.2-5.2,0.5l0,0c0,0-3.3,1.5-8.2,0.4l0,0l-9.9-2.4
		c3.7-12.8-0.4-11.3-4.4-17.9c-4-6.6,1.8-9.6,3.4-10.5c0,0,10.2,2.5,12.6-6.6c2.5-9.1-3.8-10.5-3.8-10.5
		c1.3-4.8-11.8-12.4-29.2-17.2l-0.3-0.1c-17.4-4.7-32.6-4.7-33.8,0.1c0,0-6.1-1.9-8.6,7.2c-2.5,9.1,7.6,12.1,7.6,12.1
		c0.9,1.6,4.4,7-2.4,10.7c-6.8,3.7-9.6,0.3-12.9,13.4c-3.3,13.1-7,25.9-7,25.9s-4.6,4-4.1,8.7c0.4,3.4,2.5,6.1,5.9,7.7
		c0,0,6.8,3.9-1.1,9.6c-1.5,1.1-6.4-0.4-7.4,2.1c0,0-4.5,1.1-6.4,7.9s3.8,9.9,3.8,9.9l-0.2,0.6c-1.8,6.8,11.1,16.2,29,21l1.5,0.4
		c17.8,4.8,33.8,3.2,35.6-3.6l0.1-0.6c0,0,6.4,0.2,8.3-6.6c1.8-6.8-1.5-10.1-1.5-10.1c0.3-2.7-4.6-3.9-5.4-5.6
		c-4-8.9,3.9-8.9,3.9-8.9c3.7,0.4,6.9-0.9,8.9-3.7c2.8-3.8,0.9-9.5,0.9-9.5s0-0.2,0.1-0.5l11.2,3.3c4,1.5,5.7,4.1,5.7,4.1l0,0
		c1.1,1.4,2.4,2.4,4,2.8c2.4,0.7,5-0.1,7.4-1.8l8.4,2.5c0.1,0,0.2,0.1,0.4,0.1c3.3,1,5.4,2.8,6.3,3.7c0.1,0.2,0.3,0.3,0.4,0.5
		c0.1,0.2,0.2,0.2,0.2,0.2l0,0c0.9,0.9,2,1.6,3.3,2c2.2,0.6,4.6,0.1,6.8-1.4l189.3,56.3c0,0,88.9,28.8,94.8,7
		C505.6,309.7,415.1,286.8,415.1,286.8z"/>
	<path fill="none" stroke="#FFFFFF" stroke-width="0.7845" d="M224,296.4c-6.5,7.1-17.5,9.6-26.5,11.7c-11.4,2.6-23.2,3.8-34.9,4.9
		c-24.1,2.3-48.3,3.1-72.5,2.1c-15.8-0.7-31.7-2-47.3-4.6c-12.9-2.1-29.2-4-38.7-13.9"/>
	<path fill="none" stroke="#FFFFFF" stroke-width="0.7845" d="M222.1,294.4c-7.1,6.6-17.1,9-26.3,11c-11.7,2.4-23.5,3.7-35.4,4.9
		c-24.4,2.4-48.9,3-73.3,1.6C72,311,56.9,310.1,42,307.7c-12.1-2-27.7-4.1-37.2-12.6"/>
	<path fill="none" stroke="#FFFFFF" d="M182,190.5c-1.1,4-5.3,6.6-9.5,5.8c-21.8-4.4-43.3-10.2-64.3-17.5c-4-1.4-6.3-5.8-5.3-9.8
		c1.1-3.9,5.3-6.3,9.3-5.2c21.4,5.8,42.8,11.6,64.3,17.4C180.6,182.3,183.1,186.5,182,190.5z"/>
	<path fill="none" stroke="#FFFFFF" stroke-width="1.0144" d="M180.3,192.6c-1.1,4.2-5.4,7.2-9.4,6.5c-21.2-4-42.1-9.7-62.4-17
		c-3.8-1.4-6-6.1-4.9-10.3"/>
	<path fill="none" stroke="#FFFFFF" stroke-width="0.7845" d="M175.5,219.8c-0.7,2.4-4.7,4.3-8.9,4c-22.4-1.7-44.3-7.5-64.5-17.2
		c-3.8-1.9-6.4-5.5-5.7-8c0.7-2.4,4.3-3,8.2-1.3c20.5,8.8,42.3,14.7,64.5,17.2C173.2,215.1,176.1,217.4,175.5,219.8z"/>
	<path fill="none" stroke="#FFFFFF" stroke-width="0.7845" d="M173.9,222.5c-0.7,2.4-4.7,4.4-9,4.1c-22.4-1.5-44.3-7.4-64.4-17.5
		c-3.8-1.9-6.3-5.7-5.7-8.1"/>
	<path fill="none" stroke="#FFFFFF" stroke-width="0.7845" d="M163.5,254.8c0,0-5.5-3.8-2.1-16.2c3.4-12.5,10-12.9,10-12.9"/>
	<path fill="none" stroke="#FFFFFF" stroke-width="0.8363" d="M163.7,257.4c-0.7,2.7-4.9,5-9.2,4.8c-22.5-1.1-44.4-6.9-64.5-17.2
		c-3.8-2-6.2-6-5.5-8.8c0.8-2.8,4.5-3.5,8.4-1.8c20.4,9.3,42.2,15.1,64.5,17.2C161.6,252.2,164.4,254.6,163.7,257.4z"/>
	<path fill="none" stroke="#FFFFFF" stroke-width="0.8363" d="M162.8,260.7c-0.7,2.8-4.9,5.1-9.2,4.9c-22.6-0.9-44.5-6.9-64.4-17.5
		c-3.8-2-6.2-6.2-5.4-8.9"/>
	<path fill="none" stroke="#FFFFFF" stroke-width="0.8363" d="M153.4,280.5c-1.1,0.3-2.3,0.5-3.5,0.4c-22.6-0.9-44.5-6.9-64.4-17.5
		c-3.8-2-6.2-6.2-5.4-8.9"/>
	<path fill="none" stroke="#FFFFFF" stroke-width="0.8363" d="M151.4,295.4c-1.7,0.9-3.8,1.5-5.9,1.4c-22.6-0.9-44.5-6.9-64.4-17.5
		c-0.5-0.3-0.9-0.5-1.4-0.9"/>
	<path fill="none" stroke="#FFFFFF" stroke-width="0.7845" d="M191.3,262.3c0,0-5.5-3.8-2.1-16.2c3.4-12.4,10-12.9,10-12.9"/>
	<path fill="none" stroke="#FFFFFF" stroke-width="0.7845" d="M216.2,269c0,0-5.5-3.8-2.1-16.2c3.4-12.5,10-12.9,10-12.9"/>
</g>
</svg>
