<svg xmlns="http://www.w3.org/2000/svg" height="512pt" version="1.1" viewBox="0 0 512.00079 512" width="512pt">
<g id="surface1">
<path d="M 397.664062 284.863281 L 505.992188 428.617188 C 515.921875 441.796875 513.265625 460.703125 500.085938 470.632812 C 486.910156 480.5625 468.003906 477.90625 458.074219 464.726562 L 349.746094 320.972656 L 355.652344 278.960938 Z M 397.664062 284.863281 " style=" stroke:none;fill-rule:nonzero;fill:rgb(70.196078%,37.254902%,28.627451%);fill-opacity:1;" />
<path d="M 349.746094 320.972656 L 355.652344 278.960938 L 500.089844 470.632812 C 486.910156 480.5625 468.003906 477.90625 458.074219 464.726562 Z M 349.746094 320.972656 " style=" stroke:none;fill-rule:nonzero;fill:rgb(50.196078%,25.882353%,19.215686%);fill-opacity:1;" />
<path d="M 295.570312 249.09375 L 343.484375 212.984375 L 397.648438 284.859375 L 349.730469 320.96875 Z M 295.570312 249.09375 " style=" stroke:none;fill-rule:nonzero;fill:rgb(77.647059%,44.313725%,35.294118%);fill-opacity:1;" />
<path d="M 295.566406 249.09375 L 319.527344 231.039062 L 373.6875 302.914062 L 349.730469 320.96875 Z M 295.566406 249.09375 " style=" stroke:none;fill-rule:nonzero;fill:rgb(60%,31.372549%,23.921569%);fill-opacity:1;" />
<path d="M 356.042969 55.15625 L 408.402344 124.640625 C 409.882812 168.976562 381.203125 222.140625 337.597656 255 C 293.992188 287.859375 234.980469 300.773438 192.769531 287.128906 L 140.410156 217.648438 C 138.929688 173.3125 167.609375 120.144531 211.214844 87.285156 C 254.820312 54.429688 313.832031 41.515625 356.042969 55.15625 Z M 356.042969 55.15625 " style=" stroke:none;fill-rule:nonzero;fill:rgb(100%,85.490196%,26.666667%);fill-opacity:1;" />
<path d="M 211.214844 87.289062 L 337.597656 255 C 293.992188 287.859375 234.980469 300.773438 192.769531 287.128906 L 140.410156 217.648438 C 138.929688 173.3125 167.609375 120.148438 211.214844 87.289062 Z M 211.214844 87.289062 " style=" stroke:none;fill-rule:nonzero;fill:rgb(93.333333%,74.901961%,0%);fill-opacity:1;" />
<path d="M 445.414062 173.757812 C 432.179688 183.726562 413.371094 181.085938 403.398438 167.851562 L 313.128906 48.054688 C 303.15625 34.824219 305.800781 16.015625 319.03125 6.042969 C 332.265625 -3.929688 351.074219 -1.285156 361.046875 11.949219 L 451.316406 131.742188 C 461.289062 144.976562 458.644531 163.785156 445.414062 173.757812 Z M 445.414062 173.757812 " style=" stroke:none;fill-rule:nonzero;fill:rgb(60%,31.372549%,23.921569%);fill-opacity:1;" />
<path d="M 235.414062 323.757812 C 222.179688 333.726562 203.371094 331.085938 193.398438 317.851562 L 103.128906 198.054688 C 93.15625 184.824219 95.800781 166.015625 109.03125 156.042969 C 122.265625 146.070312 141.074219 148.714844 151.046875 161.949219 L 241.316406 281.742188 C 251.289062 294.976562 248.644531 313.785156 235.414062 323.757812 Z M 235.414062 323.757812 " style=" stroke:none;fill-rule:nonzero;fill:rgb(50.196078%,25.882353%,19.215686%);fill-opacity:1;" />
<path d="M 270 435.199219 L 270 467 C 270 475.402344 263.402344 482 255 482 L 45 482 C 36.597656 482 30 475.402344 30 467 L 30 435.199219 C 30 411.199219 49.199219 392 73.199219 392 L 226.800781 392 C 250.800781 392 270 411.199219 270 435.199219 Z M 270 435.199219 " style=" stroke:none;fill-rule:nonzero;fill:rgb(60%,31.372549%,23.921569%);fill-opacity:1;" />
<path d="M 270 435.199219 L 270 467 C 270 475.402344 263.402344 482 255 482 L 150 482 L 150 392 L 226.800781 392 C 250.800781 392 270 411.199219 270 435.199219 Z M 270 435.199219 " style=" stroke:none;fill-rule:nonzero;fill:rgb(50.196078%,25.882353%,19.215686%);fill-opacity:1;" />
<path d="M 270 452 L 30 452 C 13.5 452 0 465.5 0 482 L 0 497 C 0 505.402344 6.597656 512 15 512 L 285 512 C 293.402344 512 300 505.402344 300 497 L 300 482 C 300 465.5 286.5 452 270 452 Z M 270 452 " style=" stroke:none;fill-rule:nonzero;fill:rgb(70.196078%,37.254902%,28.627451%);fill-opacity:1;" />
<path d="M 300 482 L 300 497 C 300 505.402344 293.402344 512 285 512 L 150 512 L 150 452 L 270 452 C 286.5 452 300 465.5 300 482 Z M 300 482 " style=" stroke:none;fill-rule:nonzero;fill:rgb(60%,31.372549%,23.921569%);fill-opacity:1;" />
</g>
</svg>